<svg xmlns="http://www.w3.org/2000/svg" xmlns:svgjs="http://svgjs.com/svgjs" xmlns:xlink="http://www.w3.org/1999/xlink" width="288" height="288"><svg xmlns="http://www.w3.org/2000/svg" width="288" height="288" data-name="Group 3020" viewBox="0 0 86.644 87.063"><path fill="#2db6dd" d="M1742.329-4353.319a46.631,46.631,0,0,1,21.537-5.256,42.368,42.368,0,0,1,22.079,6.691l-1.315,11.471.6,26.012h8.484l-2.718,23.219s-13.087,10.039-27.128,10.039-27.128-9.082-27.128-9.082l-2.415-36.327s8.843-4.9,8.843-13.981S1742.329-4353.319,1742.329-4353.319Z" class="colore0582a svgShape" data-name="Path 8411" opacity=".2" transform="translate(-1717.127 4363.529)"/><g class="color000 svgShape" data-name="Group 2891"><path fill="#2db6dd" d="M1764.6-4374.109a2.008,2.008,0,0,0-1.555-.5,25.757,25.757,0,0,0-9.378,3.258,19.6,19.6,0,0,0-6.443,6.016,40.692,40.692,0,0,0-22.45-6.7,40.932,40.932,0,0,0-18.494,4.408v-4.991a2.007,2.007,0,0,0-2.007-2.006,2.007,2.007,0,0,0-2.007,2.006v21.569h-7.809v-21.569a2.007,2.007,0,0,0-2.006-2.006,2.007,2.007,0,0,0-2.007,2.006v21.569h-7.809v-21.569a2.007,2.007,0,0,0-2.007-2.006,2.007,2.007,0,0,0-2.007,2.006v23.577a13.84,13.84,0,0,0,7.292,12.182l-1.861,40.806c0,.031,0,.062,0,.092a8.409,8.409,0,0,0,8.4,8.4,8.408,8.408,0,0,0,8.4-8.4c0-.044,0-.086,0-.129l-.118-1.823a40.967,40.967,0,0,0,24.046,7.8,40.629,40.629,0,0,0,25.469-8.876l-.326,3.564c-.006.061-.009.122-.009.183a7.688,7.688,0,0,0,7.679,7.679,7.688,7.688,0,0,0,7.679-7.679v-77.377A2.008,2.008,0,0,0,1764.6-4374.109Zm-81.759,27.074h19.218a9.832,9.832,0,0,1-9.609,7.81A9.832,9.832,0,0,1,1682.837-4347.035Zm9.609,55.461a4.391,4.391,0,0,1-4.386-4.345l1.8-39.539a13.892,13.892,0,0,0,2.583.246,13.788,13.788,0,0,0,1.835-.126l2.551,39.437A4.391,4.391,0,0,1,1692.446-4291.574Zm32.323-2.549a36.944,36.944,0,0,1-24.018-8.872,2.02,2.02,0,0,0-.373-.251l-2.15-33.238a13.846,13.846,0,0,0,8.046-12.556v-14.021a36.892,36.892,0,0,1,18.494-4.961,36.687,36.687,0,0,1,20.619,6.292,21.261,21.261,0,0,0-1.284,7.52v28.635a2.007,2.007,0,0,0,2.006,2.007h6.373l-1.712,18.743A36.687,36.687,0,0,1,1724.769-4294.123Zm36.479-1.117a3.67,3.67,0,0,1-3.666,3.666,3.67,3.67,0,0,1-3.664-3.584l2.762-30.234a2,2,0,0,0-.516-1.535,2.005,2.005,0,0,0-1.482-.653h-6.565v-26.629c0-11.271,8.865-14.889,13.131-15.978Z" class="colore0582a svgShape" data-name="Path 8412" transform="translate(-1678.617 4374.624)"/><path fill="#2db6dd" d="M1792.709-4276.73a1.535,1.535,0,0,0,.494-1.16,1.543,1.543,0,0,0-.494-1.162,1.54,1.54,0,0,0-1.161-.492h-6.026l2.816-2.174a19.644,19.644,0,0,0,3.433-3.16,5.793,5.793,0,0,0,1.111-3.532v-.049a4.946,4.946,0,0,0-1.63-3.878,6.241,6.241,0,0,0-4.322-1.457,7.108,7.108,0,0,0-5.631,2.544,1.769,1.769,0,0,0-.444,1.186,1.726,1.726,0,0,0,.494,1.234,1.729,1.729,0,0,0,1.235.494,1.654,1.654,0,0,0,1.284-.544,3.966,3.966,0,0,1,2.816-1.507,2.441,2.441,0,0,1,1.679.569,2.219,2.219,0,0,1,.642,1.679q0,1.705-2.988,4.148l-4.914,4.025a2.367,2.367,0,0,0-.988,1.9,1.646,1.646,0,0,0,.593,1.333,2.148,2.148,0,0,0,1.457.469h9.384A1.574,1.574,0,0,0,1792.709-4276.73Z" class="colore0582a svgShape" data-name="Path 8413" transform="translate(-1748.782 4318.747)"/><path fill="#2db6dd" d="M1841.622-4283.133h-.914v-8.939a1.7,1.7,0,0,0-.544-1.284,1.743,1.743,0,0,0-1.284-.518,3.106,3.106,0,0,0-2.371,1.285l-7.508,8.716a3.2,3.2,0,0,0-.889,2.075,1.676,1.676,0,0,0,.543,1.259,1.875,1.875,0,0,0,1.309.494h7.112v2.074a1.742,1.742,0,0,0,.519,1.285,1.744,1.744,0,0,0,1.284.519,1.743,1.743,0,0,0,1.284-.519,1.7,1.7,0,0,0,.544-1.285v-2.074h.914a1.563,1.563,0,0,0,1.111-.444,1.479,1.479,0,0,0,.445-1.087,1.561,1.561,0,0,0-.445-1.111A1.562,1.562,0,0,0,1841.622-4283.133Zm-4.544,0h-4.593l4.593-5.383Z" class="colore0582a svgShape" data-name="Path 8414" transform="translate(-1781.965 4318.802)"/><path fill="#2db6dd" d="M1817.593-4215.476a1.9,1.9,0,0,0-1.359.543,1.9,1.9,0,0,0-.543,1.359v5.087h-7.014v-5.087a1.9,1.9,0,0,0-.543-1.359,1.9,1.9,0,0,0-1.358-.543,1.9,1.9,0,0,0-1.359.543,1.9,1.9,0,0,0-.543,1.359v13.781a1.892,1.892,0,0,0,.543,1.356,1.888,1.888,0,0,0,1.359.544,1.889,1.889,0,0,0,1.358-.544,1.894,1.894,0,0,0,.543-1.356v-5.187h7.014v5.187a1.891,1.891,0,0,0,.543,1.356,1.888,1.888,0,0,0,1.359.544,1.889,1.889,0,0,0,1.358-.544,1.892,1.892,0,0,0,.543-1.356v-13.781a1.9,1.9,0,0,0-.543-1.359A1.9,1.9,0,0,0,1817.593-4215.476Z" class="colore0582a svgShape" data-name="Path 8415" transform="translate(-1765.899 4264.604)"/></g></svg></svg>